<svg width="371" height="368" viewBox="0 0 371 368" fill="none" xmlns="http://www.w3.org/2000/svg">
<g clip-path="url(#clip0_17_158)">
<circle cx="252" cy="275" r="93" fill="#FC77BF"/>
<path d="M370.21 346.057C366.892 336.707 361.603 328.183 354.703 321.067C352.331 318.659 350.021 316.16 347.892 313.905C349.982 311.217 351.728 308.279 353.092 305.158C355.798 296.015 358.139 286.446 356.375 276.602C355.342 270.903 354.46 265.143 353.335 259.505C350.837 246.814 346.024 234.695 339.136 223.756C336.283 219.206 333.674 214.506 331.322 209.676C330.561 208.056 329.911 206.386 329.376 204.678C330.449 205.173 331.35 205.98 331.96 206.994C337.251 215.101 342.693 223.086 347.68 231.375C350.53 236.179 352.971 241.215 354.977 246.43C359.033 257.767 361.569 269.594 362.517 281.6C363.501 286.842 363.848 292.183 363.551 297.509C364.315 296.708 364.878 295.736 365.193 294.674C366.729 288.165 367.028 281.424 366.074 274.804C364.235 255.46 357.506 236.905 346.524 220.891C336.673 206.842 328.068 191.909 319.16 177.28C317.722 174.892 316.54 172.359 315.633 169.722C307.211 146.56 303.167 122.392 299.792 98.1333C297.938 84.0349 294.71 70.1527 290.154 56.6857C287.476 49.2055 284.15 41.9752 280.211 35.0781C273.703 22.3266 262.69 12.4615 249.32 7.40571C245.489 6.00381 241.658 4.6019 237.766 3.41333C231 0.944566 223.604 0.815829 216.756 3.04762C214.141 4.02286 211.648 5.21143 208.851 6.4C199.061 1.03619 188.267 0.182857 177.199 -5.73695e-07C170.084 -0.508838 163.036 1.665 157.436 6.09524C155.913 7.36381 154.004 8.0734 152.024 8.10667C134.694 9.38667 121.771 18.1333 112.498 32.4876C109.869 36.9129 107.66 41.5759 105.9 46.4152C102.616 54.5829 99.211 62.72 96.5658 71.101C89.2687 94.6286 82.0931 118.278 74.9784 141.897C68.7454 162.377 65.2184 169.722 52.6308 187.276C50.7247 189.863 48.5875 192.27 46.2458 194.469C40.5297 199.985 34.7223 205.44 28.8846 210.804C21.774 217.678 15.5253 225.394 10.2768 233.783C1.9795 246.262 -1.50074 261.342 0.48647 276.206C1.38284 284.355 4.44934 292.113 9.36469 298.667C11.0569 300.939 13.1114 302.916 15.4457 304.518C22.1043 309.12 28.7022 306.987 32.746 298.85C32.1633 299.141 31.6042 299.477 31.0738 299.855C30.4353 300.434 29.888 301.135 29.2191 301.653C28.4515 302.24 27.5729 302.664 26.6368 302.899C25.7007 303.134 24.7266 303.176 23.7738 303.022C22.821 302.868 21.9094 302.522 21.0944 302.003C20.2795 301.485 19.5783 300.806 19.0334 300.008C18.191 298.761 17.5163 297.408 17.0267 295.985C12.6788 282.606 12.1315 269.318 18.7902 256.518C20.2496 253.684 21.8307 250.91 23.5942 248.168C25.3576 245.425 26.9387 242.865 28.5502 240.213C28.5502 240.213 28.5502 240.213 28.5502 240H28.7326H28.4285V240.183C28.7898 241.356 28.8936 242.593 28.7326 243.81C26.9517 251.134 26.2651 258.683 26.6955 266.21C26.6032 276.383 29.4547 286.366 34.9048 294.949C40.9857 304.091 48.0093 312.533 58.9246 316.495C60.0756 317.002 61.1927 317.582 62.2691 318.232C44.0262 343.893 42.1411 347.093 39.7999 354.53C40.4648 355.969 41.505 357.201 42.8108 358.097C44.1166 358.993 45.6395 359.519 47.2187 359.619C54.0591 361.369 60.9922 362.733 67.9853 363.703C79.5087 364.983 91.0929 365.897 102.647 366.232C130.315 367.025 157.984 367.512 185.682 367.878C194.652 367.878 203.652 367.36 212.652 367.177C227.672 366.872 242.722 367.025 257.712 366.293C274.191 365.47 290.64 363.977 307.089 362.514C322.048 361.173 336.947 359.467 351.875 357.943C355.95 357.516 360.054 357.455 364.037 356.754C370.088 355.84 372.338 351.848 370.21 346.057ZM48.0701 296.198H47.918C47.6748 295.192 47.4012 294.217 47.1579 293.15V292.876C46.1917 292.279 45.3205 291.539 44.5735 290.682C40.3751 283.924 38.0843 276.151 37.9453 268.19C37.3651 258.95 38.3416 249.677 40.8337 240.762C42.3748 234.92 45.108 229.461 48.8606 224.731C50.9377 221.808 54.0666 219.809 57.5868 219.154C51.7861 226.222 48.0316 234.75 46.7323 243.81C45.49 250.996 44.8695 258.276 44.8776 265.57C44.8776 272.183 45.9417 278.796 46.5194 285.41C46.7323 287.909 46.9147 290.377 47.1275 292.846H47.2795C47.5228 293.912 47.7964 295.01 48.0701 296.107H48.2829L48.0701 296.198ZM60.5665 299.002H60.9921L60.6273 299.215C58.3223 296.745 56.284 294.038 54.5463 291.139C51.7131 285.103 50.2899 278.5 50.3847 271.83C50.4795 265.16 52.09 258.6 55.0936 252.648C55.3877 252.075 55.767 251.551 56.2186 251.093C56.6971 250.649 57.2163 250.251 57.7692 249.905C57.7135 250.873 57.5607 251.832 57.3131 252.77C55.4228 258.005 54.6662 263.584 55.0936 269.135C55.4972 276.204 56.9313 283.176 59.3503 289.829C60.4144 292.693 62.3908 295.68 60.4144 298.971L60.5665 299.002ZM311.893 199.345C312.683 200.027 313.397 200.793 314.021 201.63C321.166 214.065 328.464 226.408 335.305 238.994C340.789 249.51 343.569 261.232 343.392 273.097C343.637 275.247 343.433 277.424 342.795 279.491C342.156 281.558 341.097 283.47 339.683 285.105C337.571 279.953 336.269 274.504 335.822 268.952C334.591 257.04 331.288 245.436 326.062 234.667C320.832 223.665 316.302 212.328 311.498 201.143C311.376 200.655 311.68 200.198 311.893 199.345ZM315.815 234.667C316.515 235.215 317.427 235.611 317.852 236.343C323.159 245.411 326.862 255.329 328.798 265.661C329.254 269.487 329.254 273.355 328.798 277.181C328.818 278.58 328.486 279.961 327.832 281.196C327.178 282.432 326.224 283.483 325.058 284.251L324.754 284.587L324.906 284.373C325.345 267.352 322.249 250.425 315.815 234.667ZM297.968 292.968C292.495 303.652 287.81 314.724 283.951 326.095C280.91 334.324 278.265 337.341 270.026 343.65C267.72 342.636 265.742 341 264.309 338.926C257.226 331.137 250.713 322.846 244.82 314.118C240.989 308.64 236.161 303.936 230.59 300.251C227.686 298.636 224.631 297.309 221.469 296.29C224.783 294.156 227.763 292.145 230.834 290.194C236.72 286.594 241.719 281.708 245.458 275.901C249.016 270.446 251.205 264.899 247.343 258.56C248.56 258.017 249.912 257.858 251.22 258.103C252.529 258.348 253.732 258.985 254.671 259.931C257.712 262.309 260.752 264.93 263.793 267.246C274.1 274.987 284.498 282.484 294.836 290.286C295.778 291.23 296.751 292.023 297.968 292.968ZM256.982 207.848C256.982 207.36 257.712 207.025 258.259 206.69H258.624C256.86 217.478 261.178 226.469 267.137 234.789C271.676 241.286 275.422 248.305 278.296 255.695C280.363 260.846 280.242 261.486 278.296 267.276C276.105 265.3 274.408 262.837 273.34 260.084C268.201 247.65 261.786 235.703 257.56 222.872C255.904 218.029 255.703 212.805 256.982 207.848ZM281.306 61.2267C287.437 72.0974 291.47 84.0286 293.194 96.3962C293.863 100.663 294.836 104.899 291.856 110.11C291.066 105.509 290.366 101.76 289.728 97.92C287.73 85.6441 284.302 73.6457 279.512 62.1714C279.208 61.44 279.056 60.6476 278.417 58.3009C279.471 59.1915 280.448 60.1703 281.336 61.2267H281.306ZM283.404 104.899C282.917 104.381 282.218 103.985 282.127 103.467C281.002 98.1029 279.968 92.7086 278.782 86.6743C280.714 89.2567 282.119 92.1955 282.918 95.3226C283.716 98.4497 283.891 101.704 283.434 104.899H283.404ZM271.242 141.684C272.671 143.36 273.735 144.488 274.647 145.707C275.559 146.926 276.471 148.602 277.414 150.034C278.356 151.467 278.478 153.387 281.062 153.722C281.062 152.716 281.579 151.619 281.062 150.918C279.956 148.171 278.484 145.588 276.684 143.238C274.761 141.389 273.326 139.09 272.508 136.547C271.691 134.004 271.517 131.297 272.002 128.67C272.275 126.994 272.336 125.288 272.488 123.49C273.612 122.655 274.94 122.141 276.332 122.001C277.724 121.862 279.127 122.102 280.394 122.697C282.405 123.431 284.217 124.626 285.684 126.187C287.152 127.748 288.235 129.632 288.846 131.688C291.069 138.003 291.334 144.845 289.606 151.314C286.931 160.701 280.485 165.943 271.363 168.716C269.719 169.024 268.05 169.177 266.377 169.173C268.11 159.787 269.569 151.162 271.211 141.684H271.242ZM241.171 26.301L241.506 26.5448H241.293C238.083 24.523 234.73 22.7405 231.259 21.2114C227.755 20.1901 224.177 19.4462 220.557 18.9867C221.439 18.1943 221.803 17.5543 222.229 17.5238C227.762 17.0511 233.298 18.3876 238.009 21.3333C239.833 22.339 241.567 23.7105 241.171 26.301ZM216.604 12.1905C220.422 9.78111 224.904 8.64986 229.405 8.96C231.12 8.77839 232.854 8.95547 234.497 9.48005C236.14 10.0046 237.657 10.8653 238.952 12.0076C234.269 12.3429 230.438 12.4038 226.79 12.8914C223.141 13.379 219.827 14.2629 215.692 15.1162C216.057 13.501 216.087 12.4952 216.604 12.1905ZM213.807 68.7238C217.928 64.2723 220.508 58.6083 221.165 52.5714C221.332 51.0911 221.798 49.6603 222.533 48.3657C224.359 54.1682 224.024 60.4376 221.591 66.0114C218.733 72.4419 216.057 79.0552 210.098 84.5714C211.435 84.9371 212.469 84.9371 212.652 85.3029C213.29 86.8876 213.594 88.96 215.692 89.1429C217.372 89.118 219.033 88.7769 220.587 88.1371C231.028 84.7558 242.082 83.7154 252.968 85.0895C254.298 85.0943 255.623 84.9512 256.921 84.6629C255.644 83.3524 255.127 82.4076 254.337 82.0114C247.033 78.221 238.671 76.9975 230.59 78.5371C226.82 79.2686 223.141 80.3962 219.371 81.2495C218.124 81.4443 216.863 81.5461 215.601 81.5543C217.091 79.8476 218.641 78.1714 220.131 76.4343C221.013 75.3981 221.864 74.3314 222.624 73.2343C226.516 67.5352 227.459 63.6343 228.067 53.9124C228.836 54.0986 229.566 54.4184 230.226 54.8571C236.814 61.0612 243.936 66.6702 251.509 71.619C253.09 72.6857 254.549 73.8743 256.222 75.0019C264.887 81.0971 267.715 90.24 268.384 100.175C269.169 108.725 269.423 117.316 269.144 125.897C268.247 137.901 266.397 149.815 263.61 161.524C262.38 169.166 260.13 176.608 256.921 183.65C252.117 192.792 247.526 201.935 239.925 209.28C234.239 215.17 227.545 219.99 220.162 223.512C213.337 226.708 205.856 228.244 198.327 227.995C190.798 227.747 183.434 225.72 176.835 222.08C169.657 218.63 163.158 213.913 157.649 208.152C148.667 198.591 141.661 187.342 137.035 175.055C133.335 164.527 130.288 153.778 127.913 142.872C125.476 133.184 124.381 123.206 124.66 113.219C125.663 112.61 126.697 111.909 127.7 111.36C135.484 107.307 143.389 103.436 151.051 99.1695C153.956 97.3339 157.35 96.4302 160.781 96.579L172.943 97.5238C175.041 97.6762 177.199 98.4991 179.419 96.3657L178.841 92.1295C179.351 91.6573 179.937 91.2759 180.574 91.0019C188.986 88.2509 196.827 83.9855 203.713 78.4152C207.337 75.4456 210.713 72.1839 213.807 68.6629V68.7238ZM165.159 273.31C169.129 281.716 175.284 288.895 182.976 294.095C185.652 295.924 188.358 297.661 191.003 299.49C191.714 300.106 192.375 300.779 192.98 301.501C182.155 303.086 175.497 310.126 169.598 317.653C163.092 325.943 156.707 334.324 149.44 342.034C147.676 343.863 145.73 345.539 143.815 347.337C137.449 343.411 132.628 337.405 130.163 330.331C128.126 324.663 126.332 318.933 124.082 313.295C121.832 307.657 119.248 301.44 116.694 295.223C121.711 291.688 126.819 288.183 131.896 284.556C140.45 278.461 148.974 272.305 157.467 266.088C160.507 263.954 163.183 261.455 167.531 261.76C167.531 262.735 167.865 263.741 167.896 264.808C167.906 265.937 167.855 267.066 167.744 268.19L164.703 267.977C163.122 269.836 164.186 271.573 165.098 273.25L165.159 273.31ZM204.807 49.8286C204.971 54.9394 203.359 59.9486 200.246 64C197.32 67.9682 194.12 71.726 190.669 75.2457C185.53 80.3962 180.088 85.2419 174.402 90.4838L167.561 89.0819C182.824 78.08 196.385 66.4381 204.807 49.8286ZM166.862 65.0667C170.632 61.6533 173.764 57.4781 177.26 53.699C178.324 52.5714 178.841 50.6514 180.848 50.6514C180.829 50.6024 180.829 50.5481 180.848 50.499L181.122 50.3467V50.621H180.97C179.547 56.0315 176.928 61.0519 173.308 65.3105C170.772 68.7671 167.877 71.9443 164.673 74.7886C153.375 85.6959 140.513 94.8485 126.515 101.943C123.809 103.192 121.042 104.381 118.275 105.478C117.028 105.775 115.755 105.949 114.474 105.996C117.211 104.076 118.792 102.949 120.312 101.882C136.214 90.1181 152.176 78.4762 166.862 65.219V65.0667ZM111.859 97.5238C111.403 95.6038 113.076 94.9943 114.201 94.4762C123.71 88.3841 132.847 81.7285 141.565 74.5448C143.42 73.1124 145.122 71.4971 147.038 70.1257C147.858 69.6524 148.752 69.3226 149.683 69.1505C149.683 69.1505 149.683 69.1505 149.683 68.9676L150.2 68.2971L151.112 67.0476H151.477L151.295 67.2914C150.899 67.8095 150.474 68.2971 150.048 68.8152H149.866C149.866 69.12 149.653 69.4857 149.531 69.821C149.436 70.1968 149.247 70.5426 148.984 70.8267C140.537 78.894 131.378 86.1771 121.619 92.5867C118.502 94.4134 115.284 96.0618 111.981 97.5238H111.403H111.859ZM106.417 141.775C106.712 139.426 107.621 137.197 109.052 135.313C110.483 133.429 112.385 131.958 114.565 131.048C115.767 130.339 117.145 129.986 118.538 130.03C119.932 130.073 121.284 130.51 122.44 131.291C122.957 134.857 123.657 138.819 124.052 142.811C123.984 144.052 123.585 145.252 122.896 146.286C121.528 148.724 119.856 151.04 118.609 153.478C117.706 155.178 116.923 156.94 116.268 158.75C116.004 159.75 115.821 160.769 115.721 161.798C116.967 161.554 118.062 161.798 118.305 161.219C119.187 159.787 119.734 158.171 120.525 156.617C121.802 154.179 123.17 151.802 124.721 148.998C125.181 149.671 125.578 150.385 125.907 151.131C128.065 159.208 130.224 167.284 132.444 175.665C126.225 176.217 120.033 174.351 115.148 170.454C110.264 166.556 107.062 160.926 106.204 154.728C105.764 150.417 105.836 146.069 106.417 141.775ZM97.2955 235.733C98.8158 233.143 99.9408 230.339 101.248 227.627C107.032 215.279 108.869 201.442 106.508 188.008C105.941 185.077 105.818 182.076 106.143 179.109C106.599 179.749 107.299 180.297 107.451 180.998C109.806 189.46 111.514 198.089 112.559 206.811C113.249 214.103 112.056 221.45 109.093 228.145C106.518 233.813 103.812 239.421 100.975 244.968C96.472 252.799 93.8003 261.552 93.1605 270.568C93.1605 270.903 92.7348 271.238 92.2787 271.97C91.7923 271.147 91.0929 270.537 91.0321 269.867C89.968 257.95 91.2146 246.37 97.2955 235.733ZM186.868 347.429C186.899 341.748 188.766 336.23 192.189 331.703C192.093 337.372 190.233 342.87 186.868 347.429ZM194.591 310.309C188.884 314.148 183.649 318.649 178.993 323.718C174.737 328.533 170.51 333.44 166.588 338.53C164.745 340.667 163.772 343.42 163.862 346.244C163.952 349.067 165.099 351.753 167.075 353.768C169.568 356.815 172.335 359.345 175.801 362.91C168.321 362.91 161.906 362.91 155.46 362.91C141.747 362.667 128.096 362.484 114.292 362.027C100.488 361.57 86.9275 360.99 73.1541 360.076C67.8424 359.518 62.5646 358.674 57.3436 357.547C53.3605 356.846 49.3775 356.023 44.908 355.17C45.2345 353.871 45.6825 352.605 46.2458 351.39C51.0497 343.741 55.8233 336.152 60.7489 328.564C64.5724 322.516 70.1392 317.776 76.7114 314.971C83.0052 312.32 89.2383 309.516 95.5016 306.743C98.2685 305.524 100.975 304.244 103.711 303.025L113.593 298.667C114.626 301.013 115.69 303.086 116.451 305.28C118.731 311.985 120.768 318.781 123.109 325.486C124.599 329.722 126.15 333.928 128.156 337.981C130.617 342.808 134.283 346.914 138.798 349.897C140.114 351.042 141.799 351.673 143.541 351.673C145.284 351.673 146.968 351.042 148.284 349.897C149.52 349 150.661 347.979 151.69 346.85C159.363 339.031 166.342 330.557 172.548 321.524C175.836 316.998 179.676 312.902 183.98 309.333C185.681 307.71 187.804 306.601 190.106 306.132C192.408 305.663 194.795 305.853 196.993 306.682C197.632 309.059 195.716 309.547 194.591 310.309ZM186.534 290.499C180.46 286.688 175.334 281.539 171.544 275.444C172.304 268.373 173.034 261.638 173.733 254.964C174.026 254.924 174.323 254.924 174.615 254.964C190.334 257.402 204.108 251.581 217.182 244.145C224.327 240.091 229.344 233.509 234.452 227.048C236.398 224.488 238.374 221.958 240.35 219.429C240.35 219.429 240.746 219.429 241.384 219.429C241.384 220.983 241.627 222.476 241.597 224.213C241.298 236.227 241.745 248.248 242.935 260.206C242.976 260.844 243.077 261.477 243.239 262.095C245.823 269.44 241.627 274.499 237.158 279.101C233.817 282.084 230.26 284.814 226.516 287.269C222.898 289.95 219.097 292.358 215.57 295.162C212.371 297.487 210.123 300.899 209.246 304.762C207.894 305.183 206.448 305.193 205.09 304.792C203.732 304.39 202.523 303.595 201.615 302.507C197.216 297.782 192.144 293.736 186.564 290.499H186.534ZM200.398 362.301C200.733 361.082 200.915 360.29 201.159 359.497C203.796 352.008 205.253 344.152 205.476 336.213C205.528 331.932 206.246 327.686 207.604 323.627C207.604 327.436 208.182 331.246 208.06 335.025C208.231 341.904 209.525 348.71 211.891 355.17C213.005 357.67 214.338 360.067 215.874 362.331C210.74 362.879 205.561 362.869 200.429 362.301H200.398ZM221.043 327.04C224.18 331.97 226.136 337.561 226.759 343.375C222.32 338.773 222.199 332.739 221.074 327.04H221.043ZM362.456 351.909C359.416 352.396 356.071 352.457 352.848 352.792C340.291 354.011 327.734 355.352 315.146 356.51C300.674 357.851 286.171 359.223 271.637 360.259C260.326 361.051 248.955 361.356 237.644 361.844C236.367 361.844 235.09 361.844 232.78 361.844C234.087 360.564 234.695 359.893 235.394 359.314C238.921 356.267 242.692 353.219 245.914 349.928C247.975 347.975 249.204 345.3 249.346 342.462C249.488 339.623 248.531 336.838 246.675 334.69C239.841 324.257 231.298 315.056 221.408 307.474C220.01 306.438 218.733 305.31 217.425 304.213C217.076 303.777 216.77 303.308 216.513 302.811C218.394 301.811 220.53 301.395 222.647 301.618C224.765 301.84 226.769 302.691 228.401 304.061C232.71 307.585 236.579 311.617 239.925 316.069C246.177 325.312 253.022 334.139 260.418 342.491C261.944 344.287 263.68 345.893 265.586 347.276C266.775 348.223 268.249 348.738 269.767 348.738C271.285 348.738 272.759 348.223 273.948 347.276C278.311 344.504 281.966 340.747 284.62 336.305C286.804 332.129 288.733 327.824 290.397 323.413C293.012 316.617 295.353 309.699 297.876 302.842C298.606 300.891 299.579 299.032 300.674 296.747C302.924 297.691 304.322 298.21 305.66 298.88C313.25 302.824 321.127 306.186 329.224 308.937C336.743 311.594 343.483 316.088 348.835 322.011C356.605 330.027 362.512 339.663 366.135 350.232C365.015 350.981 363.784 351.547 362.487 351.909H362.456Z" fill="#373A40"/>
<path d="M156.98 110.446C148.741 111.878 140.987 115.017 136.001 123.581L149.197 118.674C149.744 121.387 150.2 123.581 150.534 125.318C149.288 127.147 146.703 126.293 146.339 128.762C146.898 129.054 147.506 129.24 148.132 129.31C155.377 128.532 162.695 128.778 169.872 130.042C170.48 130.042 171.24 129.463 172.517 128.884L167.987 125.836L170.267 118.461L177.534 120.015C176.926 118.217 176.865 116.815 176.135 116.206C173.562 113.893 170.51 112.177 167.199 111.182C163.889 110.186 160.399 109.935 156.98 110.446Z" fill="#373A40"/>
<path d="M220.496 114.103C221.347 116.358 222.077 118.339 222.807 120.198L219.584 123.733C220.131 124.282 220.314 124.556 220.435 124.556C227.398 123.855 234.391 123.185 241.354 122.392C243.167 122.021 244.954 121.532 246.705 120.93L238.678 117.882C239.955 115.505 239.377 112.64 241.323 110.05L252.026 112.427C251.593 111.105 250.843 109.91 249.841 108.948C248.838 107.986 247.615 107.286 246.279 106.91C240.624 104.128 234.305 102.988 228.036 103.619C223.989 104.25 220.198 106.002 217.091 108.678C215.297 110.11 213.412 111.726 213.412 114.042C215.874 117.425 218.307 113.463 220.496 114.103Z" fill="#373A40"/>
<path d="M197.875 166.644C197.452 166.19 196.983 165.781 196.476 165.425C190 162.377 187.355 161.95 189.848 151.314C190 150.705 190.182 150.095 190.304 149.455C191.155 144.183 192.372 138.941 192.767 133.638C193.753 122.93 192.446 112.135 188.936 101.973C188.504 101.17 187.962 100.431 187.324 99.7791C187.02 100.541 186.838 100.754 186.868 100.907C187.111 102.187 187.355 103.436 187.689 104.686C191.226 119.346 190.658 134.701 186.047 149.059C185.554 150.474 185.197 151.934 184.983 153.417C183.554 163.688 186.564 166.918 197.875 166.644Z" fill="#373A40"/>
<path d="M181.03 182.857C181.03 185.905 183.524 187.215 185.378 188.8C188.872 191.725 193.262 193.361 197.814 193.432C202.397 193.253 206.833 191.767 210.603 189.149C214.373 186.53 217.32 182.889 219.097 178.651C219.033 178.45 218.93 178.264 218.793 178.103C218.459 177.859 218.033 177.432 217.729 177.493C206.3 180.253 194.608 181.775 182.855 182.034C182.429 182.095 181.73 182.583 181.03 182.857ZM213.898 181.455C206.935 191.208 195.412 192.823 186.534 184.96L213.898 181.455Z" fill="#373A40"/>
<path d="M193.618 199.253C193.405 199.253 193.618 200.015 193.436 200.838C194.896 201.602 196.497 202.055 198.14 202.171C199.782 202.286 201.431 202.061 202.983 201.509C203.713 201.234 204.26 200.351 205.111 199.497C195.594 198.095 195.594 198.095 193.618 199.253Z" fill="#373A40"/>
</g>
<defs>
<clipPath id="clip0_17_158">
<rect width="371" height="368" fill="white"/>
</clipPath>
</defs>
</svg>
