<svg width="33" height="29" viewBox="0 0 33 29" fill="none" xmlns="http://www.w3.org/2000/svg">
<path d="M11.2464 22.3077H4.4C4.10826 22.3077 3.82847 22.1902 3.62218 21.981C3.41589 21.7718 3.3 21.4881 3.3 21.1923V2.23077H1.1C0.808262 2.23077 0.528473 2.11326 0.322182 1.90408C0.115892 1.69491 0 1.4112 0 1.11538C0 0.819566 0.115892 0.535864 0.322182 0.326689C0.528473 0.117514 0.808262 0 1.1 0H31.9C32.1917 0 32.4715 0.117514 32.6778 0.326689C32.8841 0.535864 33 0.819566 33 1.11538C33 1.4112 32.8841 1.69491 32.6778 1.90408C32.4715 2.11326 32.1917 2.23077 31.9 2.23077H29.7V21.1923C29.7 21.4881 29.5841 21.7718 29.3778 21.981C29.1715 22.1902 28.8917 22.3077 28.6 22.3077H21.7668L25.5772 29H23.0384L19.228 22.3077H13.7852L9.9748 29H7.436L11.2464 22.3077ZM27.5 2.23077H5.5V20.0769H27.5V2.23077ZM10.6788 14.1743C10.5765 14.278 10.4551 14.3603 10.3215 14.4164C10.1879 14.4725 10.0446 14.5014 9.9 14.5014C9.75536 14.5014 9.61214 14.4725 9.47852 14.4164C9.34489 14.3603 9.22347 14.278 9.1212 14.1743C9.01893 14.0706 8.9378 13.9475 8.88245 13.812C8.8271 13.6765 8.79861 13.5313 8.79861 13.3846C8.79861 13.238 8.8271 13.0927 8.88245 12.9572C8.9378 12.8217 9.01893 12.6986 9.1212 12.5949L14.1966 7.45077L18.5086 10.73L22.242 5.99631C22.3294 5.87416 22.4403 5.77126 22.568 5.69384C22.6958 5.61641 22.8377 5.56608 22.9852 5.54588C23.1327 5.52569 23.2827 5.53604 23.4261 5.57633C23.5695 5.61662 23.7034 5.686 23.8196 5.78026C23.9358 5.87453 24.0319 5.99173 24.1022 6.12477C24.1724 6.2578 24.2153 6.40391 24.2282 6.55424C24.2412 6.70457 24.2239 6.856 24.1775 6.99937C24.131 7.14273 24.0563 7.27505 23.958 7.38831L18.8936 13.8107L14.4034 10.3954L10.6788 14.1721V14.1743Z" fill="#FC77BF"/>
</svg>
