<svg width="32" height="33" viewBox="0 0 32 33" fill="none" xmlns="http://www.w3.org/2000/svg">
<path d="M23.4706 5.05263C23.4706 5.05263 25.1877 8.48684 23.4706 12.6842M28.8127 2C28.8127 2 32.2469 8.18158 28.8127 15.7368M12.7864 14.2105C13.488 14.2105 14.1826 14.0723 14.8308 13.8039C15.4789 13.5354 16.0678 13.1419 16.5639 12.6459C17.0599 12.1498 17.4534 11.5609 17.7219 10.9128C17.9903 10.2646 18.1285 9.56996 18.1285 8.86842C18.1285 8.16689 17.9903 7.47222 17.7219 6.82409C17.4534 6.17595 17.0599 5.58704 16.5639 5.09098C16.0678 4.59492 15.4789 4.20143 14.8308 3.93296C14.1826 3.66449 13.488 3.52632 12.7864 3.52632C11.3696 3.52632 10.0108 4.08914 9.00898 5.09098C8.00714 6.09282 7.44431 7.45161 7.44431 8.86842C7.44431 10.2852 8.00714 11.644 9.00898 12.6459C10.0108 13.6477 11.3696 14.2105 12.7864 14.2105ZM1.33905 30.0842V31H24.2338V30.0842C24.2338 26.6653 24.2338 24.9558 23.5683 23.6493C22.983 22.5005 22.049 21.5666 20.9003 20.9813C19.5938 20.3158 17.8843 20.3158 14.4654 20.3158H11.1075C7.68852 20.3158 5.97905 20.3158 4.67252 20.9813C3.5238 21.5666 2.58985 22.5005 2.00452 23.6493C1.33905 24.9558 1.33905 26.6653 1.33905 30.0842Z" stroke="#FC77BF" stroke-width="2.5" stroke-linecap="round" stroke-linejoin="round"/>
</svg>
