<svg width="30" height="29" viewBox="0 0 30 29" fill="none" xmlns="http://www.w3.org/2000/svg">
<path d="M8.31114 20.9704L10.8646 20.2338L26.2389 4.67622C26.3602 4.55196 26.4277 4.38498 26.4269 4.21136C26.4261 4.03774 26.357 3.8714 26.2346 3.74828L25.3138 2.81743C25.2543 2.7563 25.1832 2.70763 25.1047 2.67426C25.0262 2.6409 24.9418 2.62351 24.8565 2.6231C24.7712 2.6227 24.6867 2.63929 24.6079 2.67191C24.529 2.70452 24.4575 2.75252 24.3974 2.81308L9.06369 18.3301L8.31114 20.9704ZM27.1365 0.97314L28.0572 1.90544C29.3274 3.19151 29.339 5.26634 28.0804 6.53936L12.2377 22.5725L6.77994 24.1442C6.44673 24.2375 6.09012 24.1948 5.78838 24.0254C5.48663 23.8561 5.2644 23.5739 5.17044 23.2409C5.10053 23.0015 5.09952 22.7472 5.16754 22.5073L6.75529 16.9396L22.5559 0.948492C22.8564 0.645978 23.214 0.406313 23.6081 0.243474C24.0021 0.0806349 24.4247 -0.0021182 24.8511 4.11962e-05C25.2774 0.00220059 25.6991 0.0892292 26.0915 0.256051C26.4839 0.422873 26.8391 0.667599 27.1365 0.97314ZM10.4339 2.64489C11.1531 2.64489 11.736 3.23501 11.736 3.96287C11.7372 4.13492 11.7044 4.30552 11.6396 4.4649C11.5747 4.62428 11.4791 4.76932 11.3582 4.89173C11.2373 5.01413 11.0934 5.1115 10.9348 5.17827C10.7762 5.24504 10.606 5.27989 10.4339 5.28084H5.22554C3.78715 5.28084 2.62135 6.46107 2.62135 7.91533V23.7281C2.62135 25.1838 3.78715 26.3641 5.22554 26.3641H20.8507C22.2891 26.3641 23.4564 25.1838 23.4564 23.7281V18.4577C23.4564 17.7298 24.0393 17.1397 24.7585 17.1397C25.4777 17.1397 26.0606 17.7298 26.0606 18.4591V23.7281C26.0606 26.6395 23.7275 29 20.8507 29H5.22554C2.34875 29 0.0171509 26.6395 0.0171509 23.7281V7.91533C0.0171509 5.00535 2.34875 2.64489 5.22554 2.64489H10.4339Z" fill="#FC77BF"/>
</svg>
