<svg width="28" height="34" viewBox="0 0 28 34" fill="none" xmlns="http://www.w3.org/2000/svg">
<path d="M26 9.5V30.5C26 30.8978 25.842 31.2794 25.5607 31.5607C25.2794 31.842 24.8978 32 24.5 32H3.5C3.10218 32 2.72064 31.842 2.43934 31.5607C2.15804 31.2794 2 30.8978 2 30.5V3.5C2 3.10218 2.15804 2.72064 2.43934 2.43934C2.72064 2.15804 3.10218 2 3.5 2H18.5M26 9.5H18.5V2M26 9.5L18.5 2" stroke="#FC77BF" stroke-width="2.8" stroke-linecap="round" stroke-linejoin="round"/>
<path d="M11.8571 25L19 17.8571L16.1429 15L9 22.1429V25H11.8571Z" stroke="#FC77BF" stroke-width="2.8" stroke-linecap="round" stroke-linejoin="round"/>
</svg>
