<svg width="32" height="28" viewBox="0 0 32 28" fill="none" xmlns="http://www.w3.org/2000/svg">
<path d="M0 14C0 17.8675 1.61778 21.35 4.19556 23.87L0 28H10.6667V17.5L6.68444 21.42C4.68398 19.4524 3.55863 16.7837 3.55556 14C3.55547 11.8301 4.23947 9.71365 5.51318 7.94265C6.78689 6.17165 8.58753 4.83339 10.6667 4.1125V0.455C4.53333 2.0125 0 7.4725 0 14ZM14.2222 22.75H17.7778V19.25H14.2222V22.75ZM32 0H21.3333V10.5L25.3156 6.58C27.316 8.54757 28.4414 11.2163 28.4444 14C28.4445 16.1699 27.7605 18.2864 26.4868 20.0574C25.2131 21.8284 23.4125 23.1666 21.3333 23.8875V27.545C27.4667 25.9875 32 20.5275 32 14C32 10.1325 30.3822 6.65 27.8044 4.13L32 0ZM14.2222 15.75H17.7778V5.25H14.2222V15.75Z" fill="#FC77BF"/>
</svg>
