<svg width="28" height="35" viewBox="0 0 28 35" fill="none" xmlns="http://www.w3.org/2000/svg">
<path fill-rule="evenodd" clip-rule="evenodd" d="M19.25 0C19.8644 1.56073e-05 20.4679 0.161745 20.9999 0.468933C21.532 0.776122 21.9738 1.21795 22.281 1.75H24.5C25.4283 1.75 26.3185 2.11875 26.9749 2.77513C27.6313 3.4315 28 4.32174 28 5.25V26.25C28 28.5706 27.0781 30.7962 25.4372 32.4372C23.7962 34.0781 21.5706 35 19.25 35H3.5C2.57174 35 1.6815 34.6313 1.02513 33.9749C0.368749 33.3185 0 32.4283 0 31.5V5.25C0 4.32174 0.368749 3.4315 1.02513 2.77513C1.6815 2.11875 2.57174 1.75 3.5 1.75H5.719C6.02618 1.21795 6.468 0.776122 7.00005 0.468933C7.5321 0.161745 8.13564 1.56073e-05 8.75 0H19.25ZM5.25 5.25H3.5V31.5H19.25C20.6424 31.5 21.9777 30.9469 22.9623 29.9623C23.9469 28.9777 24.5 27.6424 24.5 26.25V5.25H22.75C22.75 6.17826 22.3813 7.0685 21.7249 7.72487C21.0685 8.38125 20.1783 8.75 19.25 8.75H8.75C7.82174 8.75 6.9315 8.38125 6.27513 7.72487C5.61875 7.0685 5.25 6.17826 5.25 5.25ZM21.4165 12.9132C21.7446 13.2414 21.9289 13.6865 21.9289 14.1505C21.9289 14.6145 21.7446 15.0596 21.4165 15.3878L12.754 24.0503C12.4258 24.3783 11.9808 24.5626 11.5168 24.5626C11.0527 24.5626 10.6077 24.3783 10.2795 24.0503L6.5695 20.3368C6.25837 20.0054 6.08834 19.5661 6.0954 19.1116C6.10246 18.6572 6.28605 18.2233 6.60732 17.9018C6.92859 17.5803 7.36233 17.3964 7.81678 17.389C8.27122 17.3816 8.71071 17.5514 9.04225 17.8622L11.5185 20.3368L18.942 12.9132C19.2702 12.5852 19.7152 12.4009 20.1793 12.4009C20.6433 12.4009 21.0883 12.5852 21.4165 12.9132ZM19.25 3.5H8.75V5.25H19.25V3.5Z" fill="#FC77BF"/>
</svg>
