<svg width="73" height="23" viewBox="0 0 73 23" fill="none" xmlns="http://www.w3.org/2000/svg">
<path d="M12.6123 16.3311C12.6123 15.999 12.5635 15.7012 12.4658 15.4375C12.3682 15.1641 12.1875 14.9102 11.9238 14.6758C11.6602 14.4414 11.2793 14.207 10.7812 13.9727C10.293 13.7285 9.64844 13.4746 8.84766 13.2109C7.91016 12.8984 7.00684 12.5469 6.1377 12.1562C5.26855 11.7559 4.49219 11.292 3.80859 10.7646C3.125 10.2275 2.58301 9.60254 2.18262 8.88965C1.78223 8.16699 1.58203 7.32715 1.58203 6.37012C1.58203 5.45215 1.78711 4.62695 2.19727 3.89453C2.60742 3.15234 3.17871 2.52246 3.91113 2.00488C4.65332 1.47754 5.52246 1.07715 6.51855 0.803711C7.51465 0.520508 8.60352 0.378906 9.78516 0.378906C11.3477 0.378906 12.7246 0.652344 13.916 1.19922C15.1172 1.73633 16.0547 2.50293 16.7285 3.49902C17.4121 4.48535 17.7539 5.65234 17.7539 7H12.6416C12.6416 6.46289 12.5293 5.98926 12.3047 5.5791C12.0898 5.16895 11.7627 4.84668 11.3232 4.6123C10.8838 4.37793 10.332 4.26074 9.66797 4.26074C9.02344 4.26074 8.48145 4.3584 8.04199 4.55371C7.60254 4.74902 7.27051 5.0127 7.0459 5.34473C6.82129 5.66699 6.70898 6.02344 6.70898 6.41406C6.70898 6.73633 6.79688 7.0293 6.97266 7.29297C7.1582 7.54688 7.41699 7.78613 7.74902 8.01074C8.09082 8.23535 8.50098 8.4502 8.97949 8.65527C9.46777 8.86035 10.0146 9.06055 10.6201 9.25586C11.7529 9.61719 12.7588 10.0225 13.6377 10.4717C14.5264 10.9111 15.2734 11.4141 15.8789 11.9805C16.4941 12.5371 16.958 13.1719 17.2705 13.8848C17.5928 14.5977 17.7539 15.4033 17.7539 16.3018C17.7539 17.2588 17.5684 18.1084 17.1973 18.8506C16.8262 19.5928 16.2939 20.2227 15.6006 20.7402C14.9072 21.248 14.0771 21.6338 13.1104 21.8975C12.1436 22.1611 11.0645 22.293 9.87305 22.293C8.7793 22.293 7.7002 22.1562 6.63574 21.8828C5.58105 21.5996 4.62402 21.1699 3.76465 20.5938C2.90527 20.0078 2.2168 19.2607 1.69922 18.3525C1.19141 17.4346 0.9375 16.3457 0.9375 15.0859H6.09375C6.09375 15.7109 6.17676 16.2383 6.34277 16.668C6.50879 17.0977 6.75293 17.4443 7.0752 17.708C7.39746 17.9619 7.79297 18.1475 8.26172 18.2646C8.73047 18.3721 9.26758 18.4258 9.87305 18.4258C10.5273 18.4258 11.0547 18.333 11.4551 18.1475C11.8555 17.9521 12.1484 17.6982 12.334 17.3857C12.5195 17.0635 12.6123 16.7119 12.6123 16.3311ZM37.7754 9.13867V13.0938H26.833V9.13867H37.7754ZM28.5469 0.671875V22H23.4053V0.671875H28.5469ZM41.2324 0.671875V22H36.1055V0.671875H41.2324ZM55.5703 16.9756L60.0088 0.671875H65.7656L58.5732 22H54.8525L55.5703 16.9756ZM51.542 0.671875L55.9805 16.9756L56.7275 22H52.9629L45.8145 0.671875H51.542ZM67.2568 19.6855C67.2568 18.9824 67.5107 18.3965 68.0186 17.9277C68.5264 17.4492 69.1807 17.21 69.9814 17.21C70.792 17.21 71.4463 17.4492 71.9443 17.9277C72.4521 18.3965 72.7061 18.9824 72.7061 19.6855C72.7061 20.3887 72.4521 20.9795 71.9443 21.458C71.4463 21.9268 70.792 22.1611 69.9814 22.1611C69.1807 22.1611 68.5264 21.9268 68.0186 21.458C67.5107 20.9795 67.2568 20.3887 67.2568 19.6855Z" fill="white"/>
</svg>
