<svg width="36" height="31" viewBox="0 0 36 31" fill="none" xmlns="http://www.w3.org/2000/svg">
<path d="M22.9572 12.0556C24.696 12.0556 26.1072 13.4058 26.1072 15.0694V23.2483C26.1072 25.3042 25.2536 27.2758 23.7342 28.7296C22.2149 30.1833 20.1541 31 18.0054 31C15.8567 31 13.7959 30.1833 12.2766 28.7296C10.7572 27.2758 9.9036 25.3042 9.9036 23.2483V15.0694C9.9036 13.4058 11.313 12.0556 13.0536 12.0556H22.9572ZM22.9572 14.6389H13.0536C12.9343 14.6389 12.8198 14.6843 12.7354 14.765C12.651 14.8457 12.6036 14.9553 12.6036 15.0694V23.2483C12.6036 24.619 13.1727 25.9336 14.1858 26.9029C15.1988 27.8721 16.5728 28.4167 18.0054 28.4167C19.438 28.4167 20.812 27.8721 21.825 26.9029C22.8381 25.9336 23.4072 24.619 23.4072 23.2483V15.0694C23.4072 14.9553 23.3598 14.8457 23.2754 14.765C23.191 14.6843 23.0765 14.6389 22.9572 14.6389ZM3.15 12.0556H9.2358C8.60095 12.7895 8.21315 13.6901 8.1234 14.6389H3.15C3.03065 14.6389 2.91619 14.6843 2.8318 14.765C2.74741 14.8457 2.7 14.9553 2.7 15.0694V20.6649C2.69954 21.3159 2.85333 21.9584 3.14981 22.5442C3.44629 23.1301 3.87774 23.644 4.41171 24.0473C4.94568 24.4506 5.56828 24.7328 6.23268 24.8728C6.89708 25.0127 7.58599 25.0066 8.2476 24.8551C8.4006 25.7231 8.6796 26.5515 9.063 27.3213C8.4678 27.4763 7.8468 27.5544 7.2 27.5556C6.25433 27.5556 5.31793 27.3773 4.44426 27.031C3.5706 26.6847 2.7768 26.1771 2.10819 25.5372C1.43959 24.8974 0.909279 24.1377 0.547551 23.3017C0.185823 22.4657 -0.000236192 21.5698 2.2502e-07 20.6649V15.0694C2.2502e-07 13.4058 1.4112 12.0556 3.15 12.0556ZM26.775 12.0556H32.85C34.5888 12.0556 36 13.4058 36 15.0694V20.6667C36.0002 21.7227 35.7467 22.7646 35.2591 23.7119C34.7714 24.6593 34.0627 25.4867 33.1876 26.1302C32.3125 26.7737 31.2945 27.2161 30.2123 27.4233C29.13 27.6304 28.0125 27.5967 26.946 27.3248C27.3312 26.5532 27.6102 25.7248 27.765 24.8568C28.0974 24.9326 28.4424 24.9711 28.8 24.9722C29.9935 24.9722 31.1381 24.5186 31.982 23.7112C32.8259 22.9037 33.3 21.8086 33.3 20.6667V15.0694C33.3 14.9553 33.2526 14.8457 33.1682 14.765C33.0838 14.6843 32.9693 14.6389 32.85 14.6389H27.8874C27.7976 13.6901 27.4098 12.7895 26.775 12.0556ZM18 0C19.4322 0 20.8057 0.544344 21.8184 1.51328C22.8311 2.48222 23.4 3.79638 23.4 5.16667C23.4 6.53695 22.8311 7.85111 21.8184 8.82005C20.8057 9.78899 19.4322 10.3333 18 10.3333C16.5678 10.3333 15.1943 9.78899 14.1816 8.82005C13.1689 7.85111 12.6 6.53695 12.6 5.16667C12.6 3.79638 13.1689 2.48222 14.1816 1.51328C15.1943 0.544344 16.5678 0 18 0ZM29.7 1.72222C30.8935 1.72222 32.0381 2.17584 32.882 2.98329C33.7259 3.79074 34.2 4.88587 34.2 6.02778C34.2 7.16968 33.7259 8.26482 32.882 9.07227C32.0381 9.87971 30.8935 10.3333 29.7 10.3333C28.5065 10.3333 27.3619 9.87971 26.518 9.07227C25.6741 8.26482 25.2 7.16968 25.2 6.02778C25.2 4.88587 25.6741 3.79074 26.518 2.98329C27.3619 2.17584 28.5065 1.72222 29.7 1.72222ZM6.3 1.72222C7.49347 1.72222 8.63807 2.17584 9.48198 2.98329C10.3259 3.79074 10.8 4.88587 10.8 6.02778C10.8 7.16968 10.3259 8.26482 9.48198 9.07227C8.63807 9.87971 7.49347 10.3333 6.3 10.3333C5.10653 10.3333 3.96193 9.87971 3.11802 9.07227C2.27411 8.26482 1.8 7.16968 1.8 6.02778C1.8 4.88587 2.27411 3.79074 3.11802 2.98329C3.96193 2.17584 5.10653 1.72222 6.3 1.72222ZM18 2.58333C17.2839 2.58333 16.5972 2.8555 16.0908 3.33997C15.5845 3.82444 15.3 4.48152 15.3 5.16667C15.3 5.85181 15.5845 6.50889 16.0908 6.99336C16.5972 7.47783 17.2839 7.75 18 7.75C18.7161 7.75 19.4028 7.47783 19.9092 6.99336C20.4155 6.50889 20.7 5.85181 20.7 5.16667C20.7 4.48152 20.4155 3.82444 19.9092 3.33997C19.4028 2.8555 18.7161 2.58333 18 2.58333ZM29.7 4.30556C29.2226 4.30556 28.7648 4.487 28.4272 4.80998C28.0896 5.13296 27.9 5.57102 27.9 6.02778C27.9 6.48454 28.0896 6.92259 28.4272 7.24557C28.7648 7.56855 29.2226 7.75 29.7 7.75C30.1774 7.75 30.6352 7.56855 30.9728 7.24557C31.3104 6.92259 31.5 6.48454 31.5 6.02778C31.5 5.57102 31.3104 5.13296 30.9728 4.80998C30.6352 4.487 30.1774 4.30556 29.7 4.30556ZM6.3 4.30556C5.82261 4.30556 5.36477 4.487 5.02721 4.80998C4.68964 5.13296 4.5 5.57102 4.5 6.02778C4.5 6.48454 4.68964 6.92259 5.02721 7.24557C5.36477 7.56855 5.82261 7.75 6.3 7.75C6.77739 7.75 7.23523 7.56855 7.57279 7.24557C7.91036 6.92259 8.1 6.48454 8.1 6.02778C8.1 5.57102 7.91036 5.13296 7.57279 4.80998C7.23523 4.487 6.77739 4.30556 6.3 4.30556Z" fill="#FC77BF"/>
</svg>
