<svg width="21" height="20" viewBox="0 0 21 20" fill="none" xmlns="http://www.w3.org/2000/svg">
<path d="M6.23124 0H14.6312C17.8312 0 20.4312 2.6 20.4312 5.8V14.2C20.4312 15.7383 19.8202 17.2135 18.7325 18.3012C17.6448 19.3889 16.1695 20 14.6312 20H6.23124C3.03124 20 0.431244 17.4 0.431244 14.2V5.8C0.431244 4.26174 1.04231 2.78649 2.13002 1.69878C3.21774 0.61107 4.69299 0 6.23124 0ZM6.03124 2C5.07646 2 4.16079 2.37928 3.48566 3.05442C2.81053 3.72955 2.43124 4.64522 2.43124 5.6V14.4C2.43124 16.39 4.04124 18 6.03124 18H14.8312C15.786 18 16.7017 17.6207 17.3768 16.9456C18.052 16.2705 18.4312 15.3548 18.4312 14.4V5.6C18.4312 3.61 16.8212 2 14.8312 2H6.03124ZM15.6812 3.5C16.0128 3.5 16.3307 3.6317 16.5651 3.86612C16.7995 4.10054 16.9312 4.41848 16.9312 4.75C16.9312 5.08152 16.7995 5.39946 16.5651 5.63388C16.3307 5.8683 16.0128 6 15.6812 6C15.3497 6 15.0318 5.8683 14.7974 5.63388C14.5629 5.39946 14.4312 5.08152 14.4312 4.75C14.4312 4.41848 14.5629 4.10054 14.7974 3.86612C15.0318 3.6317 15.3497 3.5 15.6812 3.5ZM10.4312 5C11.7573 5 13.0291 5.52678 13.9668 6.46447C14.9045 7.40215 15.4312 8.67392 15.4312 10C15.4312 11.3261 14.9045 12.5979 13.9668 13.5355C13.0291 14.4732 11.7573 15 10.4312 15C9.10516 15 7.83339 14.4732 6.89571 13.5355C5.95803 12.5979 5.43124 11.3261 5.43124 10C5.43124 8.67392 5.95803 7.40215 6.89571 6.46447C7.83339 5.52678 9.10516 5 10.4312 5ZM10.4312 7C9.63559 7 8.87253 7.31607 8.30992 7.87868C7.74731 8.44129 7.43124 9.20435 7.43124 10C7.43124 10.7956 7.74731 11.5587 8.30992 12.1213C8.87253 12.6839 9.63559 13 10.4312 13C11.2269 13 11.99 12.6839 12.5526 12.1213C13.1152 11.5587 13.4312 10.7956 13.4312 10C13.4312 9.20435 13.1152 8.44129 12.5526 7.87868C11.99 7.31607 11.2269 7 10.4312 7Z" fill="#373A40"/>
</svg>
