<svg width="21" height="20" viewBox="0 0 21 20" fill="none" xmlns="http://www.w3.org/2000/svg">
<path d="M17.5312 2.91006C16.6145 1.98399 15.5224 1.24973 14.3189 0.750111C13.1153 0.250494 11.8244 -0.00448012 10.5212 5.95696e-05C5.06125 5.95696e-05 0.61125 4.45006 0.61125 9.91006C0.61125 11.6601 1.07125 13.3601 1.93125 14.8601L0.53125 20.0001L5.78125 18.6201C7.23125 19.4101 8.86125 19.8301 10.5212 19.8301C15.9812 19.8301 20.4313 15.3801 20.4313 9.92006C20.4313 7.27006 19.4013 4.78006 17.5312 2.91006ZM10.5212 18.1501C9.04125 18.1501 7.59125 17.7501 6.32125 17.0001L6.02125 16.8201L2.90125 17.6401L3.73125 14.6001L3.53125 14.2901C2.709 12.977 2.27239 11.4593 2.27125 9.91006C2.27125 5.37006 5.97125 1.67006 10.5112 1.67006C12.7112 1.67006 14.7812 2.53006 16.3313 4.09006C17.0987 4.85402 17.7069 5.76272 18.1206 6.76348C18.5343 7.76425 18.7453 8.83717 18.7413 9.92006C18.7613 14.4601 15.0612 18.1501 10.5212 18.1501ZM15.0412 11.9901C14.7912 11.8701 13.5712 11.2701 13.3512 11.1801C13.1213 11.1001 12.9613 11.0601 12.7913 11.3001C12.6213 11.5501 12.1512 12.1101 12.0112 12.2701C11.8712 12.4401 11.7212 12.4601 11.4712 12.3301C11.2212 12.2101 10.4212 11.9401 9.48125 11.1001C8.74125 10.4401 8.25125 9.63006 8.10125 9.38006C7.96125 9.13006 8.08125 9.00006 8.21125 8.87006C8.32125 8.76006 8.46125 8.58006 8.58125 8.44006C8.70125 8.30006 8.75125 8.19006 8.83125 8.03006C8.91125 7.86006 8.87125 7.72006 8.81125 7.60006C8.75125 7.48006 8.25125 6.26006 8.05125 5.76006C7.85125 5.28006 7.64125 5.34006 7.49125 5.33006H7.01125C6.84125 5.33006 6.58125 5.39006 6.35125 5.64006C6.13125 5.89006 5.49125 6.49006 5.49125 7.71006C5.49125 8.93006 6.38125 10.1101 6.50125 10.2701C6.62125 10.4401 8.25125 12.9401 10.7312 14.0101C11.3212 14.2701 11.7812 14.4201 12.1412 14.5301C12.7312 14.7201 13.2712 14.6901 13.7013 14.6301C14.1812 14.5601 15.1712 14.0301 15.3712 13.4501C15.5812 12.8701 15.5813 12.3801 15.5113 12.2701C15.4413 12.1601 15.2912 12.1101 15.0412 11.9901Z" fill="#373A40"/>
</svg>
